<svg viewBox="0 0 40 40" fill="none" xmlns="http://www.w3.org/2000/svg">
<style>
  :root {
    --color-N600: #0f1e57;
    --color-brand: #e4002b;
    --color-blue-light: #e5eaff;
  }
  @media (prefers-color-scheme: dark) {
    :root {
      --color-N600: #e5eaff;
      --color-blue-light: #0e41aa;
    }
  }
</style>
<!-- Storefront awning -->
<path d="M6 12h28v2H6z" fill="var(--color-brand, #e4002b)"/>
<path d="M6 14c0 2.2 1.8 4 4 4s4-1.8 4-4" fill="var(--color-brand, #e4002b)" opacity="0.8"/>
<path d="M14 14c0 2.2 1.8 4 4 4s4-1.8 4-4" fill="var(--color-brand, #e4002b)"/>
<path d="M22 14c0 2.2 1.8 4 4 4s4-1.8 4-4" fill="var(--color-brand, #e4002b)" opacity="0.8"/>
<path d="M30 14c0 2.2 1.8 4 4 4V14z" fill="var(--color-brand, #e4002b)"/>
<path d="M6 14c0 2.2-1.8 4-4 4V14z" fill="var(--color-brand, #e4002b)"/>
<!-- Store body -->
<rect x="6" y="18" width="28" height="16" rx="1" fill="var(--color-blue-light, #e5eaff)"/>
<!-- Door -->
<rect x="16" y="24" width="8" height="10" rx="0.5" fill="var(--color-N600, #0f1e57)" opacity="0.15"/>
<rect x="18" y="26" width="1.5" height="6" rx="0.5" fill="var(--color-N600, #0f1e57)" opacity="0.3"/>
<rect x="20.5" y="26" width="1.5" height="6" rx="0.5" fill="var(--color-N600, #0f1e57)" opacity="0.3"/>
<!-- Window left -->
<rect x="8" y="20" width="6" height="5" rx="0.5" fill="var(--color-N600, #0f1e57)" opacity="0.15"/>
<!-- Grid items in left window -->
<rect x="8.8" y="20.8" width="2" height="1.5" rx="0.3" fill="var(--color-brand, #e4002b)" opacity="0.6"/>
<rect x="11.2" y="20.8" width="2" height="1.5" rx="0.3" fill="var(--color-N600, #0f1e57)" opacity="0.3"/>
<rect x="8.8" y="22.8" width="2" height="1.5" rx="0.3" fill="var(--color-N600, #0f1e57)" opacity="0.3"/>
<rect x="11.2" y="22.8" width="2" height="1.5" rx="0.3" fill="var(--color-brand, #e4002b)" opacity="0.6"/>
<!-- Window right -->
<rect x="26" y="20" width="6" height="5" rx="0.5" fill="var(--color-N600, #0f1e57)" opacity="0.15"/>
<!-- Grid items in right window -->
<rect x="26.8" y="20.8" width="2" height="1.5" rx="0.3" fill="var(--color-N600, #0f1e57)" opacity="0.3"/>
<rect x="29.2" y="20.8" width="2" height="1.5" rx="0.3" fill="var(--color-brand, #e4002b)" opacity="0.6"/>
<rect x="26.8" y="22.8" width="2" height="1.5" rx="0.3" fill="var(--color-brand, #e4002b)" opacity="0.6"/>
<rect x="29.2" y="22.8" width="2" height="1.5" rx="0.3" fill="var(--color-N600, #0f1e57)" opacity="0.3"/>
<!-- Sign -->
<rect x="14" y="6" width="12" height="6" rx="1" fill="var(--color-N600, #0f1e57)"/>
<circle cx="17" cy="9" r="1.2" fill="var(--color-brand, #e4002b)"/>
<circle cx="20" cy="9" r="1.2" fill="var(--color-blue-light, #e5eaff)"/>
<circle cx="23" cy="9" r="1.2" fill="var(--color-brand, #e4002b)"/>
<!-- Sign post -->
<rect x="19" y="4" width="2" height="2" fill="var(--color-N600, #0f1e57)"/>
</svg>
